<svg xmlns="http://www.w3.org/2000/svg" xmlns:xlink="http://www.w3.org/1999/xlink" viewBox="0 0 200 180"><defs><style>.cls-1{isolation:isolate;}.cls-2{fill:url(#未命名的渐变_164);}.cls-3,.cls-5{opacity:0.6;mix-blend-mode:soft-light;}.cls-3{fill:url(#未命名的渐变_190);}.cls-4{fill:url(#未命名的渐变_185);}.cls-6{fill:url(#未命名的渐变_191);}</style><linearGradient id="未命名的渐变_164" x1="60.46" y1="49.27" x2="183.53" y2="123.7" gradientUnits="userSpaceOnUse"><stop offset="0" stop-color="#00c7ff"/><stop offset="0.44" stop-color="#009eff"/><stop offset="1" stop-color="#0179e5"/></linearGradient><linearGradient id="未命名的渐变_190" x1="60.46" y1="49.27" x2="183.53" y2="123.7" gradientUnits="userSpaceOnUse"><stop offset="0" stop-color="aqua"/><stop offset="0.5" stop-color="#0179e5" stop-opacity="0"/></linearGradient><linearGradient id="未命名的渐变_185" x1="26.19" y1="77.85" x2="106.02" y2="142.48" gradientUnits="userSpaceOnUse"><stop offset="0" stop-color="#00caff"/><stop offset="0.68" stop-color="#0086ff"/></linearGradient><linearGradient id="未命名的渐变_191" x1="26.19" y1="77.85" x2="106.02" y2="142.48" gradientUnits="userSpaceOnUse"><stop offset="0" stop-color="aqua"/><stop offset="0.54" stop-color="#0179e5" stop-opacity="0"/></linearGradient></defs><title>ELcould</title><g class="cls-1"><g id="图层_1" data-name="图层 1"><path class="cls-2" d="M177.84,73.11a44.39,44.39,0,0,0-23-14.07l-.17,0c-.47-1.25-1-2.48-1.5-3.7a73.8,73.8,0,0,0-4.49-8.59,60.77,60.77,0,0,0-12.68-14.88,52.22,52.22,0,0,0-17.17-9.66,57.51,57.51,0,0,0-19-2.91A55.53,55.53,0,0,0,64.73,31.91,58.12,58.12,0,0,0,45.32,62.76l6.91,2a49,49,0,0,1,1.88-4.79,44.34,44.34,0,0,1,61.71-24.37,37.71,37.71,0,0,1,10.44,7.2c.31.3.59.63.89.94.14.14.27.3.41.44.52.55,1.05,1.1,1.54,1.69a44.22,44.22,0,0,1,10.27,20.48l.11.43c.13.52.28,1.26.3,1.47l.18,2c0,.42.08.86.12,1.29l.18,2c.91-.08,1.83-.14,2.77-.14a31.59,31.59,0,0,1,31.59,31.59c0,.31,0,.61-.05.91,0,.58,0,1.15-.08,1.72,0,.25,0,.51-.06.76a30.08,30.08,0,0,1-5.05,14c-.25.37-.52.73-.79,1.1s-.32.47-.5.7l-.18.21a31.67,31.67,0,0,1-12.82,9.77,34.24,34.24,0,0,1-6.08,2.05,34.83,34.83,0,0,1-5.87.87,59.75,59.75,0,0,1-6.28.31,71.82,71.82,0,0,1-12.64-1.12,89.91,89.91,0,0,1-24.49-8.33,131.64,131.64,0,0,1-22.68-14.74l8-7.86a1.8,1.8,0,0,0-.64-2.94l-29.71-9.9c-1.48-.58-3.19.89-2.32,2.38,1.33,2.26,6.92,8.16,11.74,13.07,3.08,3.44,6.32,6.73,9.71,9.91A134.74,134.74,0,0,0,96,134.66a99.17,99.17,0,0,0,26.13,11.17,83.51,83.51,0,0,0,14.31,2.39c2.44.17,4.88.27,7.32.21a41,41,0,0,0,7.63-.7,46.84,46.84,0,0,0,26.91-15.13,43.86,43.86,0,0,0,10.87-29.66A46.57,46.57,0,0,0,177.84,73.11Z"/><path class="cls-3" d="M177.84,73.11a44.39,44.39,0,0,0-23-14.07l-.17,0c-.47-1.25-1-2.48-1.5-3.7a73.8,73.8,0,0,0-4.49-8.59,60.77,60.77,0,0,0-12.68-14.88,52.22,52.22,0,0,0-17.17-9.66,57.51,57.51,0,0,0-19-2.91A55.53,55.53,0,0,0,64.73,31.91,58.12,58.12,0,0,0,45.32,62.76l6.91,2a49,49,0,0,1,1.88-4.79,44.34,44.34,0,0,1,61.71-24.37,37.71,37.71,0,0,1,10.44,7.2c.31.3.59.63.89.94.14.14.27.3.41.44.52.55,1.05,1.1,1.54,1.69a44.22,44.22,0,0,1,10.27,20.48l.11.43c.13.52.28,1.26.3,1.47l.18,2c0,.42.08.86.12,1.29l.18,2c.91-.08,1.83-.14,2.77-.14a31.59,31.59,0,0,1,31.59,31.59c0,.31,0,.61-.05.91,0,.58,0,1.15-.08,1.72,0,.25,0,.51-.06.76a30.08,30.08,0,0,1-5.05,14c-.25.37-.52.73-.79,1.1s-.32.47-.5.7l-.18.21a31.67,31.67,0,0,1-12.82,9.77,34.24,34.24,0,0,1-6.08,2.05,34.83,34.83,0,0,1-5.87.87,59.75,59.75,0,0,1-6.28.31,71.82,71.82,0,0,1-12.64-1.12,89.91,89.91,0,0,1-24.49-8.33,131.64,131.64,0,0,1-22.68-14.74l8-7.86a1.8,1.8,0,0,0-.64-2.94l-29.71-9.9c-1.48-.58-3.19.89-2.32,2.38,1.33,2.26,6.92,8.16,11.74,13.07,3.08,3.44,6.32,6.73,9.71,9.91A134.74,134.74,0,0,0,96,134.66a99.17,99.17,0,0,0,26.13,11.17,83.51,83.51,0,0,0,14.31,2.39c2.44.17,4.88.27,7.32.21a41,41,0,0,0,7.63-.7,46.84,46.84,0,0,0,26.91-15.13,43.86,43.86,0,0,0,10.87-29.66A46.57,46.57,0,0,0,177.84,73.11Z"/><path class="cls-4" d="M90.57,139.14c-3.83,0-7-.06-8.76-.11l-23.15-.42a40.74,40.74,0,0,1-18.37-6.78,36.21,36.21,0,0,1-12.08-14c-5.22-10.76-4.95-24.68,2.09-35a35.72,35.72,0,0,1,32.62-16c10.87.58,21.45,6.58,28.29,15.93h4.91A41.65,41.65,0,0,0,85.63,68.12,43.13,43.13,0,0,0,64.09,57.67a45,45,0,0,0-24.41,2.56,46.38,46.38,0,0,0-19.75,15.3c-10.12,13.61-12.44,33.4-3.57,48.64A44.48,44.48,0,0,0,34.62,141.4,57.21,57.21,0,0,0,58,147.61l.33,0h.08l23.5-.78c3.92-.15,14.27-.27,24.61-.37Z"/><g class="cls-5"><path class="cls-6" d="M90.57,139.14c-3.83,0-7-.06-8.76-.11l-23.15-.42a40.74,40.74,0,0,1-18.37-6.78,36.21,36.21,0,0,1-12.08-14c-5.22-10.76-4.95-24.68,2.09-35a35.72,35.72,0,0,1,32.62-16c10.87.58,21.45,6.58,28.29,15.93h4.91A41.65,41.65,0,0,0,85.63,68.12,43.13,43.13,0,0,0,64.09,57.67a45,45,0,0,0-24.41,2.56,46.38,46.38,0,0,0-19.75,15.3c-10.12,13.61-12.44,33.4-3.57,48.64A44.48,44.48,0,0,0,34.62,141.4,57.21,57.21,0,0,0,58,147.61l.33,0h.08l23.5-.78c3.92-.15,14.27-.27,24.61-.37Z"/></g></g></g></svg>