<?xml version="1.0" encoding="UTF-8"?>
<svg width="258px" height="278px" viewBox="0 0 258 278" version="1.1" xmlns="http://www.w3.org/2000/svg" xmlns:xlink="http://www.w3.org/1999/xlink">
    <!-- Generator: Sketch 51.3 (57544) - http://www.bohemiancoding.com/sketch -->
    <title>Group 7</title>
    <desc>Created with Sketch.</desc>
    <defs>
        <polygon id="path-1" points="5.09735449e-05 0.331752266 257.366345 0.331752266 257.366345 278 5.09735449e-05 278"></polygon>
        <polygon id="path-3" points="0.0898073161 0.126160139 254.365446 0.126160139 254.365446 243.414821 0.0898073161 243.414821"></polygon>
    </defs>
    <g id="Page-1" stroke="none" stroke-width="1" fill="none" fill-rule="evenodd">
        <g id="Group-7">
            <g id="Group-3">
                <mask id="mask-2" fill="white">
                    <use xlink:href="#path-1"></use>
                </mask>
                <g id="Clip-2"></g>
                <path d="M257.366597,89.1451934 C257.366597,89.1451934 250.261933,280.791338 110.754526,277.969344 C-35.0348033,275.018849 -46.1725036,14.4035076 133.161027,0.539622356 C186.856122,-2.60152568 196.876102,30.6366918 197.853477,46.592716 C201.241933,101.95755 148.262011,127.827508 150.921848,138.223532 C153.340493,153.699145 187.694832,165.06103 187.694832,165.06103 C187.694832,165.06103 162.774721,173.282607 116.085965,175.701459 C69.3946886,178.115272 30.9291577,172.797157 30.9291577,172.797157 C30.9291577,172.797157 58.0258808,151.521338 66.7340111,134.112323 C75.4429818,116.706668 80.2819524,89.1451934 80.2819524,89.1451934 C80.2819524,89.1451934 92.8180632,119.035653 123.060369,112.267066 C153.299314,105.495961 166.395125,44.6584743 106.239106,42.8854894 C-4.56138958,40.7891511 -40.3561583,237.27216 109.79564,235.174142 C220.11207,230.580843 257.366597,89.1451934 257.366597,89.1451934" id="Fill-1" fill="#1176B2" mask="url(#mask-2)"></path>
            </g>
            <g id="Group-6" transform="translate(3.000000, 14.000000)">
                <mask id="mask-4" fill="white">
                    <use xlink:href="#path-3"></use>
                </mask>
                <g id="Clip-5"></g>
                <path d="M27.2505792,158.962214 C27.2505792,158.962214 190.373995,120.210807 175.839837,30.7570414 C167.383599,-4.68353793 122.883153,0.344544828 122.081124,0.4026 C-21.8238762,11.7847793 -51.2187277,234.369993 103.508203,243.414821 C239.520827,241.315579 254.36553,75.0009724 254.36553,75.0009724 C254.36553,75.0009724 227.869094,236.310214 100.252114,235.882793 C-27.0442228,235.457897 -35.3902129,37.2171517 113.115728,8.63633793 C113.115728,8.63633793 165.203896,-0.808986207 167.184144,39.6504207 C166.898005,116.417028 27.2505792,158.962214 27.2505792,158.962214" id="Fill-4" fill="#FFFFFF" mask="url(#mask-4)"></path>
            </g>
        </g>
    </g>
</svg>